<mxfile host="app.diagrams.net" agent="Mozilla/5.0 (Windows NT 10.0; Win64; x64) AppleWebKit/537.36 (KHTML, like Gecko) Chrome/128.0.0.0 Safari/537.36 Edg/128.0.0.0" version="24.7.13">
  <diagram name="Page-1" id="e56a1550-8fbb-45ad-956c-1786394a9013">
    <mxGraphModel dx="3049" dy="795" grid="1" gridSize="10" guides="1" tooltips="1" connect="1" arrows="1" fold="1" page="1" pageScale="1" pageWidth="1100" pageHeight="850" background="none" math="0" shadow="0">
      <root>
        <mxCell id="0" />
        <mxCell id="1" parent="0" />
        <mxCell id="5-K3sK50ygORmTR-ccPb-88" style="edgeStyle=orthogonalEdgeStyle;rounded=0;orthogonalLoop=1;jettySize=auto;html=1;entryX=1;entryY=0.5;entryDx=0;entryDy=0;" edge="1" parent="1" source="5-K3sK50ygORmTR-ccPb-4" target="5-K3sK50ygORmTR-ccPb-80">
          <mxGeometry relative="1" as="geometry" />
        </mxCell>
        <mxCell id="5-K3sK50ygORmTR-ccPb-4" value="Banco de Dados API Usuários e API Entidades" style="shape=datastore;whiteSpace=wrap;html=1;" vertex="1" parent="1">
          <mxGeometry x="-420" y="200" width="100" height="86" as="geometry" />
        </mxCell>
        <mxCell id="5-K3sK50ygORmTR-ccPb-86" style="edgeStyle=orthogonalEdgeStyle;rounded=0;orthogonalLoop=1;jettySize=auto;html=1;entryX=1;entryY=0.5;entryDx=0;entryDy=0;" edge="1" parent="1" source="5-K3sK50ygORmTR-ccPb-5" target="5-K3sK50ygORmTR-ccPb-82">
          <mxGeometry relative="1" as="geometry" />
        </mxCell>
        <mxCell id="5-K3sK50ygORmTR-ccPb-5" value="Banco de Dados&amp;nbsp; API Feed e API Tópicos Populares" style="shape=datastore;whiteSpace=wrap;html=1;" vertex="1" parent="1">
          <mxGeometry x="-420" y="402" width="100" height="86" as="geometry" />
        </mxCell>
        <mxCell id="5-K3sK50ygORmTR-ccPb-6" value="Banco de Dados de Pagamentos" style="shape=datastore;whiteSpace=wrap;html=1;" vertex="1" parent="1">
          <mxGeometry x="-420" y="607" width="100" height="86" as="geometry" />
        </mxCell>
        <mxCell id="5-K3sK50ygORmTR-ccPb-46" style="edgeStyle=orthogonalEdgeStyle;rounded=0;orthogonalLoop=1;jettySize=auto;html=1;entryX=1;entryY=0.3;entryDx=0;entryDy=0;" edge="1" parent="1" source="5-K3sK50ygORmTR-ccPb-31" target="5-K3sK50ygORmTR-ccPb-4">
          <mxGeometry relative="1" as="geometry" />
        </mxCell>
        <mxCell id="5-K3sK50ygORmTR-ccPb-91" style="edgeStyle=orthogonalEdgeStyle;rounded=0;orthogonalLoop=1;jettySize=auto;html=1;entryX=1.013;entryY=0.861;entryDx=0;entryDy=0;entryPerimeter=0;" edge="1" parent="1" target="5-K3sK50ygORmTR-ccPb-55">
          <mxGeometry relative="1" as="geometry">
            <mxPoint x="-98.07999999999993" y="591.95" as="targetPoint" />
            <mxPoint x="-100" y="240" as="sourcePoint" />
            <Array as="points">
              <mxPoint x="40" y="240" />
              <mxPoint x="40" y="390" />
              <mxPoint x="-98" y="390" />
            </Array>
          </mxGeometry>
        </mxCell>
        <mxCell id="5-K3sK50ygORmTR-ccPb-93" value="Postagens Entidades" style="edgeLabel;html=1;align=center;verticalAlign=middle;resizable=0;points=[];" vertex="1" connectable="0" parent="5-K3sK50ygORmTR-ccPb-91">
          <mxGeometry x="-0.0315" y="3" relative="1" as="geometry">
            <mxPoint as="offset" />
          </mxGeometry>
        </mxCell>
        <mxCell id="5-K3sK50ygORmTR-ccPb-31" value="API usuários" style="swimlane;html=1;fontStyle=0;childLayout=stackLayout;horizontal=1;startSize=26;fillColor=#e0e0e0;horizontalStack=0;resizeParent=1;resizeLast=0;collapsible=1;marginBottom=0;swimlaneFillColor=#ffffff;align=center;rounded=0;shadow=0;comic=0;labelBackgroundColor=none;strokeWidth=1;fontFamily=Verdana;fontSize=14" vertex="1" parent="1">
          <mxGeometry x="-260" y="30" width="160" height="112" as="geometry" />
        </mxCell>
        <mxCell id="5-K3sK50ygORmTR-ccPb-32" value="row 1" style="shape=partialRectangle;top=0;left=0;right=0;bottom=0;html=1;align=left;verticalAlign=middle;fillColor=none;spacingLeft=60;spacingRight=4;whiteSpace=wrap;overflow=hidden;rotatable=0;points=[[0,0.5],[1,0.5]];portConstraint=eastwest;dropTarget=0;fontStyle=5;" vertex="1" parent="5-K3sK50ygORmTR-ccPb-31">
          <mxGeometry y="26" width="160" height="30" as="geometry" />
        </mxCell>
        <mxCell id="5-K3sK50ygORmTR-ccPb-33" value="PK,FK1" style="shape=partialRectangle;fontStyle=1;top=0;left=0;bottom=0;html=1;fillColor=none;align=left;verticalAlign=middle;spacingLeft=4;spacingRight=4;whiteSpace=wrap;overflow=hidden;rotatable=0;points=[];portConstraint=eastwest;part=1;" vertex="1" connectable="0" parent="5-K3sK50ygORmTR-ccPb-32">
          <mxGeometry width="56" height="30" as="geometry" />
        </mxCell>
        <mxCell id="5-K3sK50ygORmTR-ccPb-34" value="row 2" style="shape=partialRectangle;top=0;left=0;right=0;bottom=1;html=1;align=left;verticalAlign=middle;fillColor=none;spacingLeft=60;spacingRight=4;whiteSpace=wrap;overflow=hidden;rotatable=0;points=[[0,0.5],[1,0.5]];portConstraint=eastwest;dropTarget=0;fontStyle=5;" vertex="1" parent="5-K3sK50ygORmTR-ccPb-31">
          <mxGeometry y="56" width="160" height="30" as="geometry" />
        </mxCell>
        <mxCell id="5-K3sK50ygORmTR-ccPb-35" value="PK,FK2" style="shape=partialRectangle;fontStyle=1;top=0;left=0;bottom=0;html=1;fillColor=none;align=left;verticalAlign=middle;spacingLeft=4;spacingRight=4;whiteSpace=wrap;overflow=hidden;rotatable=0;points=[];portConstraint=eastwest;part=1;" vertex="1" connectable="0" parent="5-K3sK50ygORmTR-ccPb-34">
          <mxGeometry width="56" height="30" as="geometry" />
        </mxCell>
        <mxCell id="5-K3sK50ygORmTR-ccPb-36" value="row 1" style="shape=partialRectangle;top=0;left=0;right=0;bottom=0;html=1;align=left;verticalAlign=top;fillColor=none;spacingLeft=60;spacingRight=4;whiteSpace=wrap;overflow=hidden;rotatable=0;points=[[0,0.5],[1,0.5]];portConstraint=eastwest;dropTarget=0;" vertex="1" parent="5-K3sK50ygORmTR-ccPb-31">
          <mxGeometry y="86" width="160" height="26" as="geometry" />
        </mxCell>
        <mxCell id="5-K3sK50ygORmTR-ccPb-37" value="" style="shape=partialRectangle;top=0;left=0;bottom=0;html=1;fillColor=none;align=left;verticalAlign=top;spacingLeft=4;spacingRight=4;whiteSpace=wrap;overflow=hidden;rotatable=0;points=[];portConstraint=eastwest;part=1;" vertex="1" connectable="0" parent="5-K3sK50ygORmTR-ccPb-36">
          <mxGeometry width="56" height="26" as="geometry" />
        </mxCell>
        <mxCell id="5-K3sK50ygORmTR-ccPb-38" value="API entidades" style="swimlane;html=1;fontStyle=0;childLayout=stackLayout;horizontal=1;startSize=26;fillColor=#e0e0e0;horizontalStack=0;resizeParent=1;resizeLast=0;collapsible=1;marginBottom=0;swimlaneFillColor=#ffffff;align=center;rounded=0;shadow=0;comic=0;labelBackgroundColor=none;strokeWidth=1;fontFamily=Verdana;fontSize=14" vertex="1" parent="1">
          <mxGeometry x="-260" y="160" width="160" height="112" as="geometry" />
        </mxCell>
        <mxCell id="5-K3sK50ygORmTR-ccPb-39" value="row 1" style="shape=partialRectangle;top=0;left=0;right=0;bottom=0;html=1;align=left;verticalAlign=middle;fillColor=none;spacingLeft=60;spacingRight=4;whiteSpace=wrap;overflow=hidden;rotatable=0;points=[[0,0.5],[1,0.5]];portConstraint=eastwest;dropTarget=0;fontStyle=5;" vertex="1" parent="5-K3sK50ygORmTR-ccPb-38">
          <mxGeometry y="26" width="160" height="30" as="geometry" />
        </mxCell>
        <mxCell id="5-K3sK50ygORmTR-ccPb-40" value="PK,FK1" style="shape=partialRectangle;fontStyle=1;top=0;left=0;bottom=0;html=1;fillColor=none;align=left;verticalAlign=middle;spacingLeft=4;spacingRight=4;whiteSpace=wrap;overflow=hidden;rotatable=0;points=[];portConstraint=eastwest;part=1;" vertex="1" connectable="0" parent="5-K3sK50ygORmTR-ccPb-39">
          <mxGeometry width="56" height="30" as="geometry" />
        </mxCell>
        <mxCell id="5-K3sK50ygORmTR-ccPb-41" value="row 2" style="shape=partialRectangle;top=0;left=0;right=0;bottom=1;html=1;align=left;verticalAlign=middle;fillColor=none;spacingLeft=60;spacingRight=4;whiteSpace=wrap;overflow=hidden;rotatable=0;points=[[0,0.5],[1,0.5]];portConstraint=eastwest;dropTarget=0;fontStyle=5;" vertex="1" parent="5-K3sK50ygORmTR-ccPb-38">
          <mxGeometry y="56" width="160" height="30" as="geometry" />
        </mxCell>
        <mxCell id="5-K3sK50ygORmTR-ccPb-42" value="PK,FK2" style="shape=partialRectangle;fontStyle=1;top=0;left=0;bottom=0;html=1;fillColor=none;align=left;verticalAlign=middle;spacingLeft=4;spacingRight=4;whiteSpace=wrap;overflow=hidden;rotatable=0;points=[];portConstraint=eastwest;part=1;" vertex="1" connectable="0" parent="5-K3sK50ygORmTR-ccPb-41">
          <mxGeometry width="56" height="30" as="geometry" />
        </mxCell>
        <mxCell id="5-K3sK50ygORmTR-ccPb-43" value="row 1" style="shape=partialRectangle;top=0;left=0;right=0;bottom=0;html=1;align=left;verticalAlign=top;fillColor=none;spacingLeft=60;spacingRight=4;whiteSpace=wrap;overflow=hidden;rotatable=0;points=[[0,0.5],[1,0.5]];portConstraint=eastwest;dropTarget=0;" vertex="1" parent="5-K3sK50ygORmTR-ccPb-38">
          <mxGeometry y="86" width="160" height="26" as="geometry" />
        </mxCell>
        <mxCell id="5-K3sK50ygORmTR-ccPb-44" value="" style="shape=partialRectangle;top=0;left=0;bottom=0;html=1;fillColor=none;align=left;verticalAlign=top;spacingLeft=4;spacingRight=4;whiteSpace=wrap;overflow=hidden;rotatable=0;points=[];portConstraint=eastwest;part=1;" vertex="1" connectable="0" parent="5-K3sK50ygORmTR-ccPb-43">
          <mxGeometry width="56" height="26" as="geometry" />
        </mxCell>
        <mxCell id="5-K3sK50ygORmTR-ccPb-45" style="edgeStyle=orthogonalEdgeStyle;rounded=0;orthogonalLoop=1;jettySize=auto;html=1;entryX=1;entryY=0.7;entryDx=0;entryDy=0;" edge="1" parent="1" source="5-K3sK50ygORmTR-ccPb-41" target="5-K3sK50ygORmTR-ccPb-4">
          <mxGeometry relative="1" as="geometry" />
        </mxCell>
        <mxCell id="5-K3sK50ygORmTR-ccPb-62" style="edgeStyle=orthogonalEdgeStyle;rounded=0;orthogonalLoop=1;jettySize=auto;html=1;entryX=1;entryY=0.7;entryDx=0;entryDy=0;" edge="1" parent="1" source="5-K3sK50ygORmTR-ccPb-47" target="5-K3sK50ygORmTR-ccPb-5">
          <mxGeometry relative="1" as="geometry" />
        </mxCell>
        <mxCell id="5-K3sK50ygORmTR-ccPb-47" value="API Tópicos populares" style="swimlane;html=1;fontStyle=0;childLayout=stackLayout;horizontal=1;startSize=26;fillColor=#e0e0e0;horizontalStack=0;resizeParent=1;resizeLast=0;collapsible=1;marginBottom=0;swimlaneFillColor=#ffffff;align=center;rounded=0;shadow=0;comic=0;labelBackgroundColor=none;strokeWidth=1;fontFamily=Verdana;fontSize=14" vertex="1" parent="1">
          <mxGeometry x="-260" y="470" width="160" height="112" as="geometry" />
        </mxCell>
        <mxCell id="5-K3sK50ygORmTR-ccPb-48" value="row 1" style="shape=partialRectangle;top=0;left=0;right=0;bottom=0;html=1;align=left;verticalAlign=middle;fillColor=none;spacingLeft=60;spacingRight=4;whiteSpace=wrap;overflow=hidden;rotatable=0;points=[[0,0.5],[1,0.5]];portConstraint=eastwest;dropTarget=0;fontStyle=5;" vertex="1" parent="5-K3sK50ygORmTR-ccPb-47">
          <mxGeometry y="26" width="160" height="30" as="geometry" />
        </mxCell>
        <mxCell id="5-K3sK50ygORmTR-ccPb-49" value="PK,FK1" style="shape=partialRectangle;fontStyle=1;top=0;left=0;bottom=0;html=1;fillColor=none;align=left;verticalAlign=middle;spacingLeft=4;spacingRight=4;whiteSpace=wrap;overflow=hidden;rotatable=0;points=[];portConstraint=eastwest;part=1;" vertex="1" connectable="0" parent="5-K3sK50ygORmTR-ccPb-48">
          <mxGeometry width="56" height="30" as="geometry" />
        </mxCell>
        <mxCell id="5-K3sK50ygORmTR-ccPb-50" value="row 2" style="shape=partialRectangle;top=0;left=0;right=0;bottom=1;html=1;align=left;verticalAlign=middle;fillColor=none;spacingLeft=60;spacingRight=4;whiteSpace=wrap;overflow=hidden;rotatable=0;points=[[0,0.5],[1,0.5]];portConstraint=eastwest;dropTarget=0;fontStyle=5;" vertex="1" parent="5-K3sK50ygORmTR-ccPb-47">
          <mxGeometry y="56" width="160" height="30" as="geometry" />
        </mxCell>
        <mxCell id="5-K3sK50ygORmTR-ccPb-51" value="PK,FK2" style="shape=partialRectangle;fontStyle=1;top=0;left=0;bottom=0;html=1;fillColor=none;align=left;verticalAlign=middle;spacingLeft=4;spacingRight=4;whiteSpace=wrap;overflow=hidden;rotatable=0;points=[];portConstraint=eastwest;part=1;" vertex="1" connectable="0" parent="5-K3sK50ygORmTR-ccPb-50">
          <mxGeometry width="56" height="30" as="geometry" />
        </mxCell>
        <mxCell id="5-K3sK50ygORmTR-ccPb-52" value="row 1" style="shape=partialRectangle;top=0;left=0;right=0;bottom=0;html=1;align=left;verticalAlign=top;fillColor=none;spacingLeft=60;spacingRight=4;whiteSpace=wrap;overflow=hidden;rotatable=0;points=[[0,0.5],[1,0.5]];portConstraint=eastwest;dropTarget=0;" vertex="1" parent="5-K3sK50ygORmTR-ccPb-47">
          <mxGeometry y="86" width="160" height="26" as="geometry" />
        </mxCell>
        <mxCell id="5-K3sK50ygORmTR-ccPb-53" value="" style="shape=partialRectangle;top=0;left=0;bottom=0;html=1;fillColor=none;align=left;verticalAlign=top;spacingLeft=4;spacingRight=4;whiteSpace=wrap;overflow=hidden;rotatable=0;points=[];portConstraint=eastwest;part=1;" vertex="1" connectable="0" parent="5-K3sK50ygORmTR-ccPb-52">
          <mxGeometry width="56" height="26" as="geometry" />
        </mxCell>
        <mxCell id="5-K3sK50ygORmTR-ccPb-54" value="API Feed" style="swimlane;html=1;fontStyle=0;childLayout=stackLayout;horizontal=1;startSize=26;fillColor=#e0e0e0;horizontalStack=0;resizeParent=1;resizeLast=0;collapsible=1;marginBottom=0;swimlaneFillColor=#ffffff;align=center;rounded=0;shadow=0;comic=0;labelBackgroundColor=none;strokeWidth=1;fontFamily=Verdana;fontSize=14" vertex="1" parent="1">
          <mxGeometry x="-260" y="330" width="160" height="112" as="geometry" />
        </mxCell>
        <mxCell id="5-K3sK50ygORmTR-ccPb-55" value="row 1" style="shape=partialRectangle;top=0;left=0;right=0;bottom=0;html=1;align=left;verticalAlign=middle;fillColor=none;spacingLeft=60;spacingRight=4;whiteSpace=wrap;overflow=hidden;rotatable=0;points=[[0,0.5],[1,0.5]];portConstraint=eastwest;dropTarget=0;fontStyle=5;" vertex="1" parent="5-K3sK50ygORmTR-ccPb-54">
          <mxGeometry y="26" width="160" height="30" as="geometry" />
        </mxCell>
        <mxCell id="5-K3sK50ygORmTR-ccPb-56" value="PK,FK1" style="shape=partialRectangle;fontStyle=1;top=0;left=0;bottom=0;html=1;fillColor=none;align=left;verticalAlign=middle;spacingLeft=4;spacingRight=4;whiteSpace=wrap;overflow=hidden;rotatable=0;points=[];portConstraint=eastwest;part=1;" vertex="1" connectable="0" parent="5-K3sK50ygORmTR-ccPb-55">
          <mxGeometry width="56" height="30" as="geometry" />
        </mxCell>
        <mxCell id="5-K3sK50ygORmTR-ccPb-57" value="row 2" style="shape=partialRectangle;top=0;left=0;right=0;bottom=1;html=1;align=left;verticalAlign=middle;fillColor=none;spacingLeft=60;spacingRight=4;whiteSpace=wrap;overflow=hidden;rotatable=0;points=[[0,0.5],[1,0.5]];portConstraint=eastwest;dropTarget=0;fontStyle=5;" vertex="1" parent="5-K3sK50ygORmTR-ccPb-54">
          <mxGeometry y="56" width="160" height="30" as="geometry" />
        </mxCell>
        <mxCell id="5-K3sK50ygORmTR-ccPb-58" value="PK,FK2" style="shape=partialRectangle;fontStyle=1;top=0;left=0;bottom=0;html=1;fillColor=none;align=left;verticalAlign=middle;spacingLeft=4;spacingRight=4;whiteSpace=wrap;overflow=hidden;rotatable=0;points=[];portConstraint=eastwest;part=1;" vertex="1" connectable="0" parent="5-K3sK50ygORmTR-ccPb-57">
          <mxGeometry width="56" height="30" as="geometry" />
        </mxCell>
        <mxCell id="5-K3sK50ygORmTR-ccPb-59" value="row 1" style="shape=partialRectangle;top=0;left=0;right=0;bottom=0;html=1;align=left;verticalAlign=top;fillColor=none;spacingLeft=60;spacingRight=4;whiteSpace=wrap;overflow=hidden;rotatable=0;points=[[0,0.5],[1,0.5]];portConstraint=eastwest;dropTarget=0;" vertex="1" parent="5-K3sK50ygORmTR-ccPb-54">
          <mxGeometry y="86" width="160" height="26" as="geometry" />
        </mxCell>
        <mxCell id="5-K3sK50ygORmTR-ccPb-60" value="" style="shape=partialRectangle;top=0;left=0;bottom=0;html=1;fillColor=none;align=left;verticalAlign=top;spacingLeft=4;spacingRight=4;whiteSpace=wrap;overflow=hidden;rotatable=0;points=[];portConstraint=eastwest;part=1;" vertex="1" connectable="0" parent="5-K3sK50ygORmTR-ccPb-59">
          <mxGeometry width="56" height="26" as="geometry" />
        </mxCell>
        <mxCell id="5-K3sK50ygORmTR-ccPb-61" style="edgeStyle=orthogonalEdgeStyle;rounded=0;orthogonalLoop=1;jettySize=auto;html=1;entryX=1;entryY=0.3;entryDx=0;entryDy=0;" edge="1" parent="1" source="5-K3sK50ygORmTR-ccPb-55" target="5-K3sK50ygORmTR-ccPb-5">
          <mxGeometry relative="1" as="geometry" />
        </mxCell>
        <mxCell id="5-K3sK50ygORmTR-ccPb-78" style="edgeStyle=orthogonalEdgeStyle;rounded=0;orthogonalLoop=1;jettySize=auto;html=1;entryX=1;entryY=0.7;entryDx=0;entryDy=0;" edge="1" parent="1" source="5-K3sK50ygORmTR-ccPb-63" target="5-K3sK50ygORmTR-ccPb-6">
          <mxGeometry relative="1" as="geometry" />
        </mxCell>
        <mxCell id="5-K3sK50ygORmTR-ccPb-63" value="API Pagamentos" style="swimlane;html=1;fontStyle=0;childLayout=stackLayout;horizontal=1;startSize=26;fillColor=#e0e0e0;horizontalStack=0;resizeParent=1;resizeLast=0;collapsible=1;marginBottom=0;swimlaneFillColor=#ffffff;align=center;rounded=0;shadow=0;comic=0;labelBackgroundColor=none;strokeWidth=1;fontFamily=Verdana;fontSize=14" vertex="1" parent="1">
          <mxGeometry x="-260" y="630" width="160" height="112" as="geometry" />
        </mxCell>
        <mxCell id="5-K3sK50ygORmTR-ccPb-64" value="row 1" style="shape=partialRectangle;top=0;left=0;right=0;bottom=0;html=1;align=left;verticalAlign=middle;fillColor=none;spacingLeft=60;spacingRight=4;whiteSpace=wrap;overflow=hidden;rotatable=0;points=[[0,0.5],[1,0.5]];portConstraint=eastwest;dropTarget=0;fontStyle=5;" vertex="1" parent="5-K3sK50ygORmTR-ccPb-63">
          <mxGeometry y="26" width="160" height="30" as="geometry" />
        </mxCell>
        <mxCell id="5-K3sK50ygORmTR-ccPb-65" value="PK,FK1" style="shape=partialRectangle;fontStyle=1;top=0;left=0;bottom=0;html=1;fillColor=none;align=left;verticalAlign=middle;spacingLeft=4;spacingRight=4;whiteSpace=wrap;overflow=hidden;rotatable=0;points=[];portConstraint=eastwest;part=1;" vertex="1" connectable="0" parent="5-K3sK50ygORmTR-ccPb-64">
          <mxGeometry width="56" height="30" as="geometry" />
        </mxCell>
        <mxCell id="5-K3sK50ygORmTR-ccPb-66" value="row 2" style="shape=partialRectangle;top=0;left=0;right=0;bottom=1;html=1;align=left;verticalAlign=middle;fillColor=none;spacingLeft=60;spacingRight=4;whiteSpace=wrap;overflow=hidden;rotatable=0;points=[[0,0.5],[1,0.5]];portConstraint=eastwest;dropTarget=0;fontStyle=5;" vertex="1" parent="5-K3sK50ygORmTR-ccPb-63">
          <mxGeometry y="56" width="160" height="30" as="geometry" />
        </mxCell>
        <mxCell id="5-K3sK50ygORmTR-ccPb-67" value="PK,FK2" style="shape=partialRectangle;fontStyle=1;top=0;left=0;bottom=0;html=1;fillColor=none;align=left;verticalAlign=middle;spacingLeft=4;spacingRight=4;whiteSpace=wrap;overflow=hidden;rotatable=0;points=[];portConstraint=eastwest;part=1;" vertex="1" connectable="0" parent="5-K3sK50ygORmTR-ccPb-66">
          <mxGeometry width="56" height="30" as="geometry" />
        </mxCell>
        <mxCell id="5-K3sK50ygORmTR-ccPb-68" value="row 1" style="shape=partialRectangle;top=0;left=0;right=0;bottom=0;html=1;align=left;verticalAlign=top;fillColor=none;spacingLeft=60;spacingRight=4;whiteSpace=wrap;overflow=hidden;rotatable=0;points=[[0,0.5],[1,0.5]];portConstraint=eastwest;dropTarget=0;" vertex="1" parent="5-K3sK50ygORmTR-ccPb-63">
          <mxGeometry y="86" width="160" height="26" as="geometry" />
        </mxCell>
        <mxCell id="5-K3sK50ygORmTR-ccPb-69" value="" style="shape=partialRectangle;top=0;left=0;bottom=0;html=1;fillColor=none;align=left;verticalAlign=top;spacingLeft=4;spacingRight=4;whiteSpace=wrap;overflow=hidden;rotatable=0;points=[];portConstraint=eastwest;part=1;" vertex="1" connectable="0" parent="5-K3sK50ygORmTR-ccPb-68">
          <mxGeometry width="56" height="26" as="geometry" />
        </mxCell>
        <mxCell id="5-K3sK50ygORmTR-ccPb-77" style="edgeStyle=orthogonalEdgeStyle;rounded=0;orthogonalLoop=1;jettySize=auto;html=1;" edge="1" parent="1" source="5-K3sK50ygORmTR-ccPb-70" target="5-K3sK50ygORmTR-ccPb-6">
          <mxGeometry relative="1" as="geometry" />
        </mxCell>
        <mxCell id="5-K3sK50ygORmTR-ccPb-70" value="API Dados Pagamentos" style="swimlane;html=1;fontStyle=0;childLayout=stackLayout;horizontal=1;startSize=26;fillColor=#e0e0e0;horizontalStack=0;resizeParent=1;resizeLast=0;collapsible=1;marginBottom=0;swimlaneFillColor=#ffffff;align=center;rounded=0;shadow=0;comic=0;labelBackgroundColor=none;strokeWidth=1;fontFamily=Verdana;fontSize=14" vertex="1" parent="1">
          <mxGeometry x="-710" y="488" width="160" height="112" as="geometry" />
        </mxCell>
        <mxCell id="5-K3sK50ygORmTR-ccPb-71" value="row 1" style="shape=partialRectangle;top=0;left=0;right=0;bottom=0;html=1;align=left;verticalAlign=middle;fillColor=none;spacingLeft=60;spacingRight=4;whiteSpace=wrap;overflow=hidden;rotatable=0;points=[[0,0.5],[1,0.5]];portConstraint=eastwest;dropTarget=0;fontStyle=5;" vertex="1" parent="5-K3sK50ygORmTR-ccPb-70">
          <mxGeometry y="26" width="160" height="30" as="geometry" />
        </mxCell>
        <mxCell id="5-K3sK50ygORmTR-ccPb-72" value="PK,FK1" style="shape=partialRectangle;fontStyle=1;top=0;left=0;bottom=0;html=1;fillColor=none;align=left;verticalAlign=middle;spacingLeft=4;spacingRight=4;whiteSpace=wrap;overflow=hidden;rotatable=0;points=[];portConstraint=eastwest;part=1;" vertex="1" connectable="0" parent="5-K3sK50ygORmTR-ccPb-71">
          <mxGeometry width="56" height="30" as="geometry" />
        </mxCell>
        <mxCell id="5-K3sK50ygORmTR-ccPb-73" value="row 2" style="shape=partialRectangle;top=0;left=0;right=0;bottom=1;html=1;align=left;verticalAlign=middle;fillColor=none;spacingLeft=60;spacingRight=4;whiteSpace=wrap;overflow=hidden;rotatable=0;points=[[0,0.5],[1,0.5]];portConstraint=eastwest;dropTarget=0;fontStyle=5;" vertex="1" parent="5-K3sK50ygORmTR-ccPb-70">
          <mxGeometry y="56" width="160" height="30" as="geometry" />
        </mxCell>
        <mxCell id="5-K3sK50ygORmTR-ccPb-74" value="PK,FK2" style="shape=partialRectangle;fontStyle=1;top=0;left=0;bottom=0;html=1;fillColor=none;align=left;verticalAlign=middle;spacingLeft=4;spacingRight=4;whiteSpace=wrap;overflow=hidden;rotatable=0;points=[];portConstraint=eastwest;part=1;" vertex="1" connectable="0" parent="5-K3sK50ygORmTR-ccPb-73">
          <mxGeometry width="56" height="30" as="geometry" />
        </mxCell>
        <mxCell id="5-K3sK50ygORmTR-ccPb-75" value="row 1" style="shape=partialRectangle;top=0;left=0;right=0;bottom=0;html=1;align=left;verticalAlign=top;fillColor=none;spacingLeft=60;spacingRight=4;whiteSpace=wrap;overflow=hidden;rotatable=0;points=[[0,0.5],[1,0.5]];portConstraint=eastwest;dropTarget=0;" vertex="1" parent="5-K3sK50ygORmTR-ccPb-70">
          <mxGeometry y="86" width="160" height="26" as="geometry" />
        </mxCell>
        <mxCell id="5-K3sK50ygORmTR-ccPb-76" value="" style="shape=partialRectangle;top=0;left=0;bottom=0;html=1;fillColor=none;align=left;verticalAlign=top;spacingLeft=4;spacingRight=4;whiteSpace=wrap;overflow=hidden;rotatable=0;points=[];portConstraint=eastwest;part=1;" vertex="1" connectable="0" parent="5-K3sK50ygORmTR-ccPb-75">
          <mxGeometry width="56" height="26" as="geometry" />
        </mxCell>
        <mxCell id="5-K3sK50ygORmTR-ccPb-79" value="API Dados gerais" style="swimlane;html=1;fontStyle=0;childLayout=stackLayout;horizontal=1;startSize=26;fillColor=#e0e0e0;horizontalStack=0;resizeParent=1;resizeLast=0;collapsible=1;marginBottom=0;swimlaneFillColor=#ffffff;align=center;rounded=0;shadow=0;comic=0;labelBackgroundColor=none;strokeWidth=1;fontFamily=Verdana;fontSize=14" vertex="1" parent="1">
          <mxGeometry x="-710" y="290" width="160" height="112" as="geometry" />
        </mxCell>
        <mxCell id="5-K3sK50ygORmTR-ccPb-80" value="row 1" style="shape=partialRectangle;top=0;left=0;right=0;bottom=0;html=1;align=left;verticalAlign=middle;fillColor=none;spacingLeft=60;spacingRight=4;whiteSpace=wrap;overflow=hidden;rotatable=0;points=[[0,0.5],[1,0.5]];portConstraint=eastwest;dropTarget=0;fontStyle=5;" vertex="1" parent="5-K3sK50ygORmTR-ccPb-79">
          <mxGeometry y="26" width="160" height="30" as="geometry" />
        </mxCell>
        <mxCell id="5-K3sK50ygORmTR-ccPb-81" value="PK,FK1" style="shape=partialRectangle;fontStyle=1;top=0;left=0;bottom=0;html=1;fillColor=none;align=left;verticalAlign=middle;spacingLeft=4;spacingRight=4;whiteSpace=wrap;overflow=hidden;rotatable=0;points=[];portConstraint=eastwest;part=1;" vertex="1" connectable="0" parent="5-K3sK50ygORmTR-ccPb-80">
          <mxGeometry width="56" height="30" as="geometry" />
        </mxCell>
        <mxCell id="5-K3sK50ygORmTR-ccPb-82" value="row 2" style="shape=partialRectangle;top=0;left=0;right=0;bottom=1;html=1;align=left;verticalAlign=middle;fillColor=none;spacingLeft=60;spacingRight=4;whiteSpace=wrap;overflow=hidden;rotatable=0;points=[[0,0.5],[1,0.5]];portConstraint=eastwest;dropTarget=0;fontStyle=5;" vertex="1" parent="5-K3sK50ygORmTR-ccPb-79">
          <mxGeometry y="56" width="160" height="30" as="geometry" />
        </mxCell>
        <mxCell id="5-K3sK50ygORmTR-ccPb-83" value="PK,FK2" style="shape=partialRectangle;fontStyle=1;top=0;left=0;bottom=0;html=1;fillColor=none;align=left;verticalAlign=middle;spacingLeft=4;spacingRight=4;whiteSpace=wrap;overflow=hidden;rotatable=0;points=[];portConstraint=eastwest;part=1;" vertex="1" connectable="0" parent="5-K3sK50ygORmTR-ccPb-82">
          <mxGeometry width="56" height="30" as="geometry" />
        </mxCell>
        <mxCell id="5-K3sK50ygORmTR-ccPb-84" value="row 1" style="shape=partialRectangle;top=0;left=0;right=0;bottom=0;html=1;align=left;verticalAlign=top;fillColor=none;spacingLeft=60;spacingRight=4;whiteSpace=wrap;overflow=hidden;rotatable=0;points=[[0,0.5],[1,0.5]];portConstraint=eastwest;dropTarget=0;" vertex="1" parent="5-K3sK50ygORmTR-ccPb-79">
          <mxGeometry y="86" width="160" height="26" as="geometry" />
        </mxCell>
        <mxCell id="5-K3sK50ygORmTR-ccPb-85" value="" style="shape=partialRectangle;top=0;left=0;bottom=0;html=1;fillColor=none;align=left;verticalAlign=top;spacingLeft=4;spacingRight=4;whiteSpace=wrap;overflow=hidden;rotatable=0;points=[];portConstraint=eastwest;part=1;" vertex="1" connectable="0" parent="5-K3sK50ygORmTR-ccPb-84">
          <mxGeometry width="56" height="26" as="geometry" />
        </mxCell>
        <mxCell id="5-K3sK50ygORmTR-ccPb-89" style="edgeStyle=orthogonalEdgeStyle;rounded=0;orthogonalLoop=1;jettySize=auto;html=1;entryX=1.017;entryY=0.249;entryDx=0;entryDy=0;entryPerimeter=0;exitX=1;exitY=0.5;exitDx=0;exitDy=0;" edge="1" parent="1" source="5-K3sK50ygORmTR-ccPb-32" target="5-K3sK50ygORmTR-ccPb-41">
          <mxGeometry relative="1" as="geometry">
            <mxPoint x="20" y="210" as="targetPoint" />
            <Array as="points">
              <mxPoint x="-20" y="71" />
              <mxPoint x="-20" y="223" />
            </Array>
          </mxGeometry>
        </mxCell>
        <mxCell id="5-K3sK50ygORmTR-ccPb-90" value="Mensagens" style="edgeLabel;html=1;align=center;verticalAlign=middle;resizable=0;points=[];" vertex="1" connectable="0" parent="5-K3sK50ygORmTR-ccPb-89">
          <mxGeometry x="-0.0233" y="2" relative="1" as="geometry">
            <mxPoint as="offset" />
          </mxGeometry>
        </mxCell>
        <mxCell id="5-K3sK50ygORmTR-ccPb-94" style="edgeStyle=orthogonalEdgeStyle;rounded=0;orthogonalLoop=1;jettySize=auto;html=1;entryX=1;entryY=0.5;entryDx=0;entryDy=0;exitX=1.018;exitY=0.076;exitDx=0;exitDy=0;exitPerimeter=0;" edge="1" parent="1" source="5-K3sK50ygORmTR-ccPb-31" target="5-K3sK50ygORmTR-ccPb-59">
          <mxGeometry relative="1" as="geometry">
            <mxPoint x="11.920000000000073" y="424.9500000000001" as="targetPoint" />
            <mxPoint x="10.000000000000227" y="244.07999999999998" as="sourcePoint" />
            <Array as="points">
              <mxPoint x="10" y="39" />
              <mxPoint x="150" y="39" />
              <mxPoint x="150" y="429" />
            </Array>
          </mxGeometry>
        </mxCell>
        <mxCell id="5-K3sK50ygORmTR-ccPb-95" value="Postagens Usuários" style="edgeLabel;html=1;align=center;verticalAlign=middle;resizable=0;points=[];" vertex="1" connectable="0" parent="5-K3sK50ygORmTR-ccPb-94">
          <mxGeometry x="-0.0315" y="3" relative="1" as="geometry">
            <mxPoint as="offset" />
          </mxGeometry>
        </mxCell>
      </root>
    </mxGraphModel>
  </diagram>
</mxfile>
